<?xml version="1.0" encoding="UTF-8" standalone="no"?><svg xmlns="http://www.w3.org/2000/svg" xmlns:xlink="http://www.w3.org/1999/xlink" contentStyleType="text/css" height="221px" preserveAspectRatio="none" style="width:395px;height:221px;background:#FFFFFF;" version="1.1" viewBox="0 0 395 221" width="395px" zoomAndPan="magnify"><defs/><g><!--MD5=[728d23d58e22fa55ea5a0544ed140874]
cluster net.dummy--><g id="cluster_net.dummy"><path d="M8.5,6 L85.5,6 A3.75,3.75 0 0 1 88,8.5 L95,29.6094 L117.5,29.6094 A2.5,2.5 0 0 1 120,32.1094 L120,211.5 A2.5,2.5 0 0 1 117.5,214 L8.5,214 A2.5,2.5 0 0 1 6,211.5 L6,8.5 A2.5,2.5 0 0 1 8.5,6 " fill="#DDDDDD" style="stroke:#000000;stroke-width:1.5;"/><line style="stroke:#000000;stroke-width:1.5;" x1="6" x2="95" y1="29.6094" y2="29.6094"/><text fill="#000000" font-family="sans-serif" font-size="14" font-weight="bold" lengthAdjust="spacing" textLength="76" x="10" y="22.5332">net.dummy</text></g><!--MD5=[33e59a955278c32565a5bf6f302dc15e]
cluster net.foo--><g id="cluster_net.foo"><path d="M146.5,114 L197.5,114 A3.75,3.75 0 0 1 200,116.5 L207,137.6094 L251.5,137.6094 A2.5,2.5 0 0 1 254,140.1094 L254,211.5 A2.5,2.5 0 0 1 251.5,214 L146.5,214 A2.5,2.5 0 0 1 144,211.5 L144,116.5 A2.5,2.5 0 0 1 146.5,114 " style="stroke:#000000;stroke-width:1.5;fill:none;"/><line style="stroke:#000000;stroke-width:1.5;fill:none;" x1="144" x2="207" y1="137.6094" y2="137.6094"/><text fill="#000000" font-family="sans-serif" font-size="14" font-weight="bold" lengthAdjust="spacing" textLength="50" x="148" y="130.5332">net.foo</text></g><!--MD5=[a192a6f29c441cea5ef200ac5f138a29]
cluster net.unused--><g id="cluster_net.unused"><path d="M280.5,114 L361.5,114 A3.75,3.75 0 0 1 364,116.5 L371,137.6094 L385.5,137.6094 A2.5,2.5 0 0 1 388,140.1094 L388,211.5 A2.5,2.5 0 0 1 385.5,214 L280.5,214 A2.5,2.5 0 0 1 278,211.5 L278,116.5 A2.5,2.5 0 0 1 280.5,114 " style="stroke:#000000;stroke-width:1.5;fill:none;"/><line style="stroke:#000000;stroke-width:1.5;fill:none;" x1="278" x2="371" y1="137.6094" y2="137.6094"/><text fill="#000000" font-family="sans-serif" font-size="14" font-weight="bold" lengthAdjust="spacing" textLength="80" x="282" y="130.5332">net.unused</text></g><!--MD5=[cb3a15f9f15e1ea33d1c370015e332c8]
class net.dummy.Person--><g id="elem_net.dummy.Person"><rect fill="#F1F1F1" height="48" id="net.dummy.Person" rx="2.5" ry="2.5" style="stroke:#181818;stroke-width:0.5;" width="77" x="26.5" y="150"/><ellipse cx="41.5" cy="166" fill="#ADD1B2" rx="11" ry="11" style="stroke:#181818;stroke-width:1.0;"/><path d="M44.2656,161.875 Q44.4219,161.6563 44.6094,161.5469 Q44.7969,161.4375 45.0156,161.4375 Q45.3906,161.4375 45.625,161.7031 Q45.8594,161.9531 45.8594,162.5625 L45.8594,164.0156 Q45.8594,164.625 45.625,164.8906 Q45.3906,165.1563 45.0156,165.1563 Q44.6719,165.1563 44.4688,164.9531 Q44.2656,164.7656 44.1563,164.25 Q44.1094,163.8906 43.9219,163.7031 Q43.5938,163.3281 42.9844,163.1094 Q42.375,162.8906 41.75,162.8906 Q40.9844,162.8906 40.3438,163.2188 Q39.7188,163.5469 39.2188,164.2969 Q38.7344,165.0469 38.7344,166.0781 L38.7344,167.1719 Q38.7344,168.4063 39.625,169.2344 Q40.5156,170.0469 42.1094,170.0469 Q43.0469,170.0469 43.7031,169.7969 Q44.0938,169.6406 44.5156,169.2031 Q44.7813,168.9375 44.9219,168.8594 Q45.0781,168.7813 45.2813,168.7813 Q45.6094,168.7813 45.8594,169.0469 Q46.125,169.2969 46.125,169.6406 Q46.125,169.9844 45.7813,170.3906 Q45.2813,170.9688 44.4844,171.2969 Q43.4063,171.75 42.1094,171.75 Q40.5938,171.75 39.3906,171.125 Q38.4063,170.625 37.7188,169.5625 Q37.0313,168.4844 37.0313,167.2031 L37.0313,166.0469 Q37.0313,164.7188 37.6406,163.5781 Q38.2656,162.4219 39.3594,161.8125 Q40.4531,161.1875 41.6875,161.1875 Q42.4219,161.1875 43.0625,161.3594 Q43.7188,161.5156 44.2656,161.875 Z " fill="#000000"/><text fill="#000000" font-family="sans-serif" font-size="14" lengthAdjust="spacing" textLength="45" x="55.5" y="171.7285">Person</text><line style="stroke:#181818;stroke-width:0.5;" x1="27.5" x2="102.5" y1="182" y2="182"/><line style="stroke:#181818;stroke-width:0.5;" x1="27.5" x2="102.5" y1="190" y2="190"/></g><!--MD5=[8ac4e197c3b047d8b0ccbf03414837ae]
class net.dummy.Meeting--><g id="elem_net.dummy.Meeting"><rect fill="#F1F1F1" height="48" id="net.dummy.Meeting" rx="2.5" ry="2.5" style="stroke:#181818;stroke-width:0.5;" width="82" x="22" y="42"/><ellipse cx="37" cy="58" fill="#ADD1B2" rx="11" ry="11" style="stroke:#181818;stroke-width:1.0;"/><path d="M39.7656,53.875 Q39.9219,53.6563 40.1094,53.5469 Q40.2969,53.4375 40.5156,53.4375 Q40.8906,53.4375 41.125,53.7031 Q41.3594,53.9531 41.3594,54.5625 L41.3594,56.0156 Q41.3594,56.625 41.125,56.8906 Q40.8906,57.1563 40.5156,57.1563 Q40.1719,57.1563 39.9688,56.9531 Q39.7656,56.7656 39.6563,56.25 Q39.6094,55.8906 39.4219,55.7031 Q39.0938,55.3281 38.4844,55.1094 Q37.875,54.8906 37.25,54.8906 Q36.4844,54.8906 35.8438,55.2188 Q35.2188,55.5469 34.7188,56.2969 Q34.2344,57.0469 34.2344,58.0781 L34.2344,59.1719 Q34.2344,60.4063 35.125,61.2344 Q36.0156,62.0469 37.6094,62.0469 Q38.5469,62.0469 39.2031,61.7969 Q39.5938,61.6406 40.0156,61.2031 Q40.2813,60.9375 40.4219,60.8594 Q40.5781,60.7813 40.7813,60.7813 Q41.1094,60.7813 41.3594,61.0469 Q41.625,61.2969 41.625,61.6406 Q41.625,61.9844 41.2813,62.3906 Q40.7813,62.9688 39.9844,63.2969 Q38.9063,63.75 37.6094,63.75 Q36.0938,63.75 34.8906,63.125 Q33.9063,62.625 33.2188,61.5625 Q32.5313,60.4844 32.5313,59.2031 L32.5313,58.0469 Q32.5313,56.7188 33.1406,55.5781 Q33.7656,54.4219 34.8594,53.8125 Q35.9531,53.1875 37.1875,53.1875 Q37.9219,53.1875 38.5625,53.3594 Q39.2188,53.5156 39.7656,53.875 Z " fill="#000000"/><text fill="#000000" font-family="sans-serif" font-size="14" lengthAdjust="spacing" textLength="50" x="51" y="63.7285">Meeting</text><line style="stroke:#181818;stroke-width:0.5;" x1="23" x2="103" y1="74" y2="74"/><line style="stroke:#181818;stroke-width:0.5;" x1="23" x2="103" y1="82" y2="82"/></g><!--MD5=[39b7869a7bbdf1e166c12fc90d8f21cb]
class net.foo.Person--><g id="elem_net.foo.Person"><rect fill="#F1F1F1" height="48" id="net.foo.Person" rx="2.5" ry="2.5" style="stroke:#181818;stroke-width:0.5;" width="77" x="160.5" y="150"/><ellipse cx="175.5" cy="166" fill="#ADD1B2" rx="11" ry="11" style="stroke:#181818;stroke-width:1.0;"/><path d="M178.2656,161.875 Q178.4219,161.6563 178.6094,161.5469 Q178.7969,161.4375 179.0156,161.4375 Q179.3906,161.4375 179.625,161.7031 Q179.8594,161.9531 179.8594,162.5625 L179.8594,164.0156 Q179.8594,164.625 179.625,164.8906 Q179.3906,165.1563 179.0156,165.1563 Q178.6719,165.1563 178.4688,164.9531 Q178.2656,164.7656 178.1563,164.25 Q178.1094,163.8906 177.9219,163.7031 Q177.5938,163.3281 176.9844,163.1094 Q176.375,162.8906 175.75,162.8906 Q174.9844,162.8906 174.3438,163.2188 Q173.7188,163.5469 173.2188,164.2969 Q172.7344,165.0469 172.7344,166.0781 L172.7344,167.1719 Q172.7344,168.4063 173.625,169.2344 Q174.5156,170.0469 176.1094,170.0469 Q177.0469,170.0469 177.7031,169.7969 Q178.0938,169.6406 178.5156,169.2031 Q178.7813,168.9375 178.9219,168.8594 Q179.0781,168.7813 179.2813,168.7813 Q179.6094,168.7813 179.8594,169.0469 Q180.125,169.2969 180.125,169.6406 Q180.125,169.9844 179.7813,170.3906 Q179.2813,170.9688 178.4844,171.2969 Q177.4063,171.75 176.1094,171.75 Q174.5938,171.75 173.3906,171.125 Q172.4063,170.625 171.7188,169.5625 Q171.0313,168.4844 171.0313,167.2031 L171.0313,166.0469 Q171.0313,164.7188 171.6406,163.5781 Q172.2656,162.4219 173.3594,161.8125 Q174.4531,161.1875 175.6875,161.1875 Q176.4219,161.1875 177.0625,161.3594 Q177.7188,161.5156 178.2656,161.875 Z " fill="#000000"/><text fill="#000000" font-family="sans-serif" font-size="14" lengthAdjust="spacing" textLength="45" x="189.5" y="171.7285">Person</text><line style="stroke:#181818;stroke-width:0.5;" x1="161.5" x2="236.5" y1="182" y2="182"/><line style="stroke:#181818;stroke-width:0.5;" x1="161.5" x2="236.5" y1="190" y2="190"/></g><!--MD5=[5f30d223f747d8ac33b5eb84f5743c2a]
class net.unused.Person--><g id="elem_net.unused.Person"><rect fill="#F1F1F1" height="48" id="net.unused.Person" rx="2.5" ry="2.5" style="stroke:#181818;stroke-width:0.5;" width="77" x="294.5" y="150"/><ellipse cx="309.5" cy="166" fill="#ADD1B2" rx="11" ry="11" style="stroke:#181818;stroke-width:1.0;"/><path d="M312.2656,161.875 Q312.4219,161.6563 312.6094,161.5469 Q312.7969,161.4375 313.0156,161.4375 Q313.3906,161.4375 313.625,161.7031 Q313.8594,161.9531 313.8594,162.5625 L313.8594,164.0156 Q313.8594,164.625 313.625,164.8906 Q313.3906,165.1563 313.0156,165.1563 Q312.6719,165.1563 312.4688,164.9531 Q312.2656,164.7656 312.1563,164.25 Q312.1094,163.8906 311.9219,163.7031 Q311.5938,163.3281 310.9844,163.1094 Q310.375,162.8906 309.75,162.8906 Q308.9844,162.8906 308.3438,163.2188 Q307.7188,163.5469 307.2188,164.2969 Q306.7344,165.0469 306.7344,166.0781 L306.7344,167.1719 Q306.7344,168.4063 307.625,169.2344 Q308.5156,170.0469 310.1094,170.0469 Q311.0469,170.0469 311.7031,169.7969 Q312.0938,169.6406 312.5156,169.2031 Q312.7813,168.9375 312.9219,168.8594 Q313.0781,168.7813 313.2813,168.7813 Q313.6094,168.7813 313.8594,169.0469 Q314.125,169.2969 314.125,169.6406 Q314.125,169.9844 313.7813,170.3906 Q313.2813,170.9688 312.4844,171.2969 Q311.4063,171.75 310.1094,171.75 Q308.5938,171.75 307.3906,171.125 Q306.4063,170.625 305.7188,169.5625 Q305.0313,168.4844 305.0313,167.2031 L305.0313,166.0469 Q305.0313,164.7188 305.6406,163.5781 Q306.2656,162.4219 307.3594,161.8125 Q308.4531,161.1875 309.6875,161.1875 Q310.4219,161.1875 311.0625,161.3594 Q311.7188,161.5156 312.2656,161.875 Z " fill="#000000"/><text fill="#000000" font-family="sans-serif" font-size="14" lengthAdjust="spacing" textLength="45" x="323.5" y="171.7285">Person</text><line style="stroke:#181818;stroke-width:0.5;" x1="295.5" x2="370.5" y1="182" y2="182"/><line style="stroke:#181818;stroke-width:0.5;" x1="295.5" x2="370.5" y1="190" y2="190"/></g><!--MD5=[8e57f1f895cc705ad5645d1ac73dc0a2]
class BaseClass--><g id="elem_BaseClass"><rect codeLine="7" fill="#F1F1F1" height="48" id="BaseClass" rx="2.5" ry="2.5" style="stroke:#181818;stroke-width:0.5;" width="99" x="144.5" y="42"/><ellipse cx="159.5" cy="58" fill="#ADD1B2" rx="11" ry="11" style="stroke:#181818;stroke-width:1.0;"/><path d="M162.2656,53.875 Q162.4219,53.6563 162.6094,53.5469 Q162.7969,53.4375 163.0156,53.4375 Q163.3906,53.4375 163.625,53.7031 Q163.8594,53.9531 163.8594,54.5625 L163.8594,56.0156 Q163.8594,56.625 163.625,56.8906 Q163.3906,57.1563 163.0156,57.1563 Q162.6719,57.1563 162.4688,56.9531 Q162.2656,56.7656 162.1563,56.25 Q162.1094,55.8906 161.9219,55.7031 Q161.5938,55.3281 160.9844,55.1094 Q160.375,54.8906 159.75,54.8906 Q158.9844,54.8906 158.3438,55.2188 Q157.7188,55.5469 157.2188,56.2969 Q156.7344,57.0469 156.7344,58.0781 L156.7344,59.1719 Q156.7344,60.4063 157.625,61.2344 Q158.5156,62.0469 160.1094,62.0469 Q161.0469,62.0469 161.7031,61.7969 Q162.0938,61.6406 162.5156,61.2031 Q162.7813,60.9375 162.9219,60.8594 Q163.0781,60.7813 163.2813,60.7813 Q163.6094,60.7813 163.8594,61.0469 Q164.125,61.2969 164.125,61.6406 Q164.125,61.9844 163.7813,62.3906 Q163.2813,62.9688 162.4844,63.2969 Q161.4063,63.75 160.1094,63.75 Q158.5938,63.75 157.3906,63.125 Q156.4063,62.625 155.7188,61.5625 Q155.0313,60.4844 155.0313,59.2031 L155.0313,58.0469 Q155.0313,56.7188 155.6406,55.5781 Q156.2656,54.4219 157.3594,53.8125 Q158.4531,53.1875 159.6875,53.1875 Q160.4219,53.1875 161.0625,53.3594 Q161.7188,53.5156 162.2656,53.875 Z " fill="#000000"/><text fill="#000000" font-family="sans-serif" font-size="14" lengthAdjust="spacing" textLength="67" x="173.5" y="63.7285">BaseClass</text><line style="stroke:#181818;stroke-width:0.5;" x1="145.5" x2="242.5" y1="74" y2="74"/><line style="stroke:#181818;stroke-width:0.5;" x1="145.5" x2="242.5" y1="82" y2="82"/></g><!--MD5=[38d283ab138c7dee77115f9fbc859330]
reverse link BaseClass to net.dummy.Person--><g id="link_BaseClass_net.dummy.Person"><path codeLine="10" d="M148.27,102.54 C146.83,103.71 145.4,104.86 144,106 C126.42,120.3 107.01,136.75 91.83,149.78 " fill="none" id="BaseClass-backto-net.dummy.Person" style="stroke:#181818;stroke-width:1.0;"/><polygon fill="none" points="143.94,97.04,163.97,90.11,152.64,108.01,143.94,97.04" style="stroke:#181818;stroke-width:1.0;"/></g><!--MD5=[3aad075c01a5f1f4921d0fd2481fc4e0]
reverse link net.dummy.Meeting to net.dummy.Person--><g id="link_net.dummy.Meeting_net.dummy.Person"><path codeLine="11" d="M63.69,103.34 C63.98,118.68 64.3,136.1 64.56,149.68 " fill="none" id="net.dummy.Meeting-backto-net.dummy.Person" style="stroke:#181818;stroke-width:1.0;"/><polygon fill="none" points="63.43,90,59.5428,96.0737,63.6541,101.9979,67.5414,95.9242,63.43,90" style="stroke:#181818;stroke-width:1.0;"/></g><!--MD5=[5b94dd299fdb64f5042d8ccdd246a8aa]
reverse link BaseClass to net.dummy.Meeting--><g id="link_BaseClass_net.dummy.Meeting"><path codeLine="13" d="M123.88,66 C117.32,66 110.75,66 104.19,66 " fill="none" id="BaseClass-backto-net.dummy.Meeting" style="stroke:#181818;stroke-width:1.0;"/><polygon fill="none" points="124.19,59,144.19,66,124.19,73,124.19,59" style="stroke:#181818;stroke-width:1.0;"/></g><!--MD5=[b57b6e1cdce0b532ba1371e9c7d07ce1]
reverse link net.dummy.Person to net.foo.Person--><g id="link_net.dummy.Person_net.foo.Person"><path codeLine="18" d="M124.06,174 C136.14,174 148.22,174 160.3,174 " fill="none" id="net.dummy.Person-backto-net.foo.Person" style="stroke:#181818;stroke-width:1.0;"/><polygon fill="none" points="123.73,181,103.73,174,123.73,167,123.73,181" style="stroke:#181818;stroke-width:1.0;"/></g><!--MD5=[3949315fc233572465e48cd9e3f6e864]
reverse link BaseClass to net.foo.Person--><g id="link_BaseClass_net.foo.Person"><path codeLine="19" d="M196.03,110.02 C196.67,123.58 197.35,138.04 197.9,149.68 " fill="none" id="BaseClass-backto-net.foo.Person" style="stroke:#181818;stroke-width:1.0;"/><polygon fill="none" points="189.04,110.31,195.08,90,203.02,109.65,189.04,110.31" style="stroke:#181818;stroke-width:1.0;"/></g><!--MD5=[736f19012fcb2f75c0b04526aeb93c2d]
reverse link net.dummy.Meeting to net.foo.Person--><g id="link_net.dummy.Meeting_net.foo.Person"><path codeLine="21" d="M108.83,97.74 C112.65,100.49 116.41,103.26 120,106 C138.3,119.96 158.05,136.71 173.23,149.97 " fill="none" id="net.dummy.Meeting-backto-net.foo.Person" style="stroke:#181818;stroke-width:1.0;"/><polygon fill="none" points="98.07,90.16,100.6619,96.8892,107.8703,97.0849,105.2784,90.3557,98.07,90.16" style="stroke:#181818;stroke-width:1.0;"/></g><!--MD5=[20bb99b6116bfc237a0342da45d84df8]
reverse link BaseClass to net.unused.Person--><g id="link_BaseClass_net.unused.Person"><path codeLine="24" d="M248.15,101.74 C250.14,103.16 252.09,104.58 254,106 C272.47,119.74 292.22,136.49 307.35,149.81 " fill="none" id="BaseClass-backto-net.unused.Person" style="stroke:#181818;stroke-width:1.0;"/><polygon fill="none" points="243.86,107.28,231.31,90.2,251.77,95.73,243.86,107.28" style="stroke:#181818;stroke-width:1.0;"/></g><!--MD5=[724149d70eb5a1d9d2d296b6b9055b59]
@startuml
' Split into 4 pages
page 2x2
skinparam pageMargin 10
skinparam pageExternalColor gray
skinparam pageBorderColor black

class BaseClass

namespace net.dummy #DDDDDD {
	.BaseClass <|- - Person
	Meeting o- - Person
	
	.BaseClass <|- Meeting

}

namespace net.foo {
  net.dummy.Person  <|- Person
  .BaseClass <|- - Person

  net.dummy.Meeting o- - Person
}

BaseClass <|- - net.unused.Person
@enduml

@startuml
page 2x2
skinparam pageMargin 10
skinparam pageExternalColor gray
skinparam pageBorderColor black

class BaseClass

namespace net.dummy #DDDDDD {
	.BaseClass <|- - Person
	Meeting o- - Person
	
	.BaseClass <|- Meeting

}

namespace net.foo {
  net.dummy.Person  <|- Person
  .BaseClass <|- - Person

  net.dummy.Meeting o- - Person
}

BaseClass <|- - net.unused.Person
@enduml

PlantUML version 1.2022.3(Tue Mar 29 13:10:57 BRT 2022)
(GPL source distribution)
Java Runtime: OpenJDK Runtime Environment
JVM: OpenJDK 64-Bit Server VM
Default Encoding: UTF-8
Language: pt
Country: BR
--></g></svg>